# Blender v2.79 (sub 0) OBJ File: ''
# www.blender.org
o Cylinder
v -5.955390 4.000000 -2.183483
v -5.760300 0.000000 -2.164269
v -5.955390 0.000000 -2.183484
v -5.760300 4.000000 -2.164268
v -5.572707 0.000000 -2.107363
v -5.572707 4.000000 -2.107362
v -5.399820 0.000000 -2.014953
v -5.399820 4.000000 -2.014952
v -5.248283 0.000000 -1.890591
v -5.248283 4.000000 -1.890590
v -5.123920 0.000000 -1.739054
v -5.123920 4.000000 -1.739053
v -5.031510 0.000000 -1.566167
v -5.031510 4.000000 -1.566166
v -4.974605 0.000000 -1.378574
v -4.974605 4.000000 -1.378573
v -4.955390 0.000000 -1.183484
v -4.955390 4.000000 -1.183483
v -4.974605 0.000000 -0.988394
v -4.974605 4.000000 -0.988393
v -5.031510 0.000000 -0.800801
v -5.031510 4.000000 -0.800800
v -5.123920 0.000000 -0.627914
v -5.123920 4.000000 -0.627913
v -5.248283 0.000000 -0.476377
v -5.248283 4.000000 -0.476376
v -5.399820 0.000000 -0.352014
v -5.399820 4.000000 -0.352013
v -5.572707 0.000000 -0.259604
v -5.572707 4.000000 -0.259603
v -5.760300 0.000000 -0.202699
v -5.760300 4.000000 -0.202698
v -5.955390 0.000000 -0.183484
v -5.955390 4.000000 -0.183483
v -6.150481 0.000000 -0.202699
v -6.150481 4.000000 -0.202698
v -6.338074 0.000000 -0.259605
v -6.338074 4.000000 -0.259604
v -6.510961 0.000000 -0.352015
v -6.510961 4.000000 -0.352014
v -6.662497 0.000000 -0.476377
v -6.662497 4.000000 -0.476376
v -6.786860 0.000000 -0.627914
v -6.786860 4.000000 -0.627913
v -6.879270 0.000000 -0.800801
v -6.879270 4.000000 -0.800800
v -6.936175 0.000000 -0.988394
v -6.936175 4.000000 -0.988393
v -6.955390 0.000000 -1.183485
v -6.955390 4.000000 -1.183484
v -6.936175 0.000000 -1.378575
v -6.936175 4.000000 -1.378574
v -6.879269 0.000000 -1.566168
v -6.879269 4.000000 -1.566167
v -6.786859 0.000000 -1.739055
v -6.786859 4.000000 -1.739054
v -6.662496 0.000000 -1.890592
v -6.662496 4.000000 -1.890591
v -6.510959 0.000000 -2.014954
v -6.510959 4.000000 -2.014953
v -6.338072 0.000000 -2.107364
v -6.338072 4.000000 -2.107363
v -6.150479 0.000000 -2.164269
v -6.150479 4.000000 -2.164268
vt 0.347903 1.543332
vt 0.038284 -0.089593
vt 0.053670 -0.120584
vt 0.353166 1.574323
vt 0.022522 -0.067916
vt 0.374881 1.596000
vt 0.006524 -0.056386
vt 1.435587 1.607530
vt 0.990436 -0.055446
vt 1.006524 -0.056386
vt 0.541712 1.608470
vt 0.974410 -0.065132
vt 0.612311 1.598784
vt 0.958596 -0.085072
vt 0.638740 1.578844
vt 0.943135 -0.114500
vt 0.645996 1.549416
vt 0.928159 -0.152285
vt 0.644728 1.511631
vt 0.913790 -0.196974
vt 0.639017 1.466942
vt 0.900151 -0.246851
vt 0.630633 1.417065
vt 0.887375 -0.299998
vt 0.620440 1.363917
vt 0.875633 -0.354374
vt 0.608902 1.309542
vt 0.865177 -0.407888
vt 0.596294 1.256028
vt 0.856427 -0.458484
vt 0.582797 1.205431
vt 0.850153 -0.504218
vt 0.568548 1.159698
vt 0.847903 -0.543332
vt 0.553670 1.120584
vt 0.853166 -0.574323
vt 0.538284 1.089592
vt 0.874882 -0.596000
vt 0.522522 1.067916
vt 0.935588 -0.607530
vt 0.506524 1.056386
vt 1.041713 -0.608470
vt 0.490436 1.055446
vt 0.112311 -0.598784
vt 0.041713 -0.608470
vt 0.474410 1.065132
vt 0.138740 -0.578843
vt 0.458596 1.085072
vt 0.145996 -0.549415
vt 0.443135 1.114500
vt 0.144728 -0.511631
vt 0.428159 1.152285
vt 0.139017 -0.466941
vt 0.413790 1.196975
vt 0.130633 -0.417064
vt 0.400151 1.246851
vt 0.120440 -0.363917
vt 0.387375 1.299999
vt 0.108902 -0.309541
vt 0.375633 1.354374
vt 0.096294 -0.256027
vt 0.365177 1.407889
vt 0.082797 -0.205431
vt 0.356427 1.458485
vt 0.068548 -0.159697
vt 0.350153 1.504219
vt 1.145996 -0.549415
vt 0.435587 1.607530
vt 1.068548 -0.159697
vt 1.053670 -0.120584
vt 1.038284 -0.089593
vt 1.022522 -0.067916
vt 1.112311 -0.598784
vt 1.138740 -0.578843
vt 1.144728 -0.511631
vt 1.139017 -0.466941
vt 1.130633 -0.417064
vt 1.120440 -0.363917
vt 1.108902 -0.309541
vt 1.096294 -0.256027
vt 1.082797 -0.205431
vn 0.0000 0.6857 -0.7279
vn 0.1420 -0.6857 -0.7139
vn -0.0000 -0.6857 -0.7279
vn 0.1420 0.6857 -0.7139
vn 0.2786 -0.6857 -0.6725
vn 0.2786 0.6857 -0.6725
vn 0.4044 -0.6857 -0.6052
vn 0.4044 0.6857 -0.6052
vn 0.5147 -0.6857 -0.5147
vn 0.5147 0.6857 -0.5147
vn 0.6052 -0.6857 -0.4044
vn 0.6052 0.6857 -0.4044
vn 0.6725 -0.6857 -0.2785
vn 0.6725 0.6857 -0.2785
vn 0.7139 -0.6857 -0.1420
vn 0.7139 0.6857 -0.1420
vn 0.7279 -0.6857 -0.0000
vn 0.7279 0.6857 0.0000
vn 0.7139 -0.6857 0.1420
vn 0.7139 0.6857 0.1420
vn 0.6725 -0.6857 0.2785
vn 0.6725 0.6857 0.2785
vn 0.6052 -0.6857 0.4044
vn 0.6052 0.6857 0.4044
vn 0.5147 -0.6857 0.5147
vn 0.5147 0.6857 0.5147
vn 0.4044 -0.6857 0.6052
vn 0.4044 0.6857 0.6052
vn 0.2785 -0.6857 0.6725
vn 0.2785 0.6857 0.6725
vn 0.1420 -0.6857 0.7139
vn 0.1420 0.6857 0.7139
vn 0.0000 -0.6857 0.7279
vn 0.0000 0.6857 0.7279
vn -0.1420 -0.6857 0.7139
vn -0.1420 0.6857 0.7139
vn -0.2786 -0.6857 0.6725
vn -0.2786 0.6857 0.6725
vn -0.4044 -0.6857 0.6052
vn -0.4044 0.6857 0.6052
vn -0.5147 -0.6857 0.5147
vn -0.5147 0.6857 0.5147
vn -0.6052 -0.6857 0.4044
vn -0.6052 0.6857 0.4044
vn -0.6725 -0.6857 0.2785
vn -0.6725 0.6857 0.2785
vn -0.7139 -0.6857 0.1420
vn -0.7139 0.6857 0.1420
vn -0.7279 -0.6857 -0.0000
vn -0.7279 0.6857 -0.0000
vn -0.7139 -0.6857 -0.1420
vn -0.7139 0.6857 -0.1420
vn -0.6725 -0.6857 -0.2786
vn -0.6725 0.6857 -0.2786
vn -0.6052 -0.6857 -0.4044
vn -0.6052 0.6857 -0.4044
vn -0.5147 -0.6857 -0.5147
vn -0.5147 0.6857 -0.5147
vn -0.4044 -0.6857 -0.6052
vn -0.4044 0.6857 -0.6052
vn -0.2785 -0.6857 -0.6725
vn -0.2785 0.6857 -0.6725
vn -0.1420 -0.6857 -0.7139
vn -0.1420 0.6857 -0.7139
s 1
f 1/1/1 2/2/2 3/3/3
f 4/4/4 5/5/5 2/2/2
f 6/6/6 7/7/7 5/5/5
f 8/8/8 9/9/9 7/10/7
f 10/11/10 11/12/11 9/9/9
f 12/13/12 13/14/13 11/12/11
f 14/15/14 15/16/15 13/14/13
f 16/17/16 17/18/17 15/16/15
f 18/19/18 19/20/19 17/18/17
f 20/21/20 21/22/21 19/20/19
f 22/23/22 23/24/23 21/22/21
f 24/25/24 25/26/25 23/24/23
f 26/27/26 27/28/27 25/26/25
f 28/29/28 29/30/29 27/28/27
f 30/31/30 31/32/31 29/30/29
f 32/33/32 33/34/33 31/32/31
f 34/35/34 35/36/35 33/34/33
f 36/37/36 37/38/37 35/36/35
f 38/39/38 39/40/39 37/38/37
f 40/41/40 41/42/41 39/40/39
f 42/43/42 43/44/43 41/45/41
f 44/46/44 45/47/45 43/44/43
f 46/48/46 47/49/47 45/47/45
f 48/50/48 49/51/49 47/49/47
f 50/52/50 51/53/51 49/51/49
f 52/54/52 53/55/53 51/53/51
f 54/56/54 55/57/55 53/55/53
f 56/58/56 57/59/57 55/57/55
f 58/60/58 59/61/59 57/59/57
f 60/62/60 61/63/61 59/61/59
f 54/56/54 38/39/38 22/23/22
f 62/64/62 63/65/63 61/63/61
f 64/66/64 3/3/3 63/65/63
f 15/16/15 31/32/31 47/67/47
f 1/1/1 4/4/4 2/2/2
f 4/4/4 6/6/6 5/5/5
f 6/6/6 8/68/8 7/7/7
f 8/8/8 10/11/10 9/9/9
f 10/11/10 12/13/12 11/12/11
f 12/13/12 14/15/14 13/14/13
f 14/15/14 16/17/16 15/16/15
f 16/17/16 18/19/18 17/18/17
f 18/19/18 20/21/20 19/20/19
f 20/21/20 22/23/22 21/22/21
f 22/23/22 24/25/24 23/24/23
f 24/25/24 26/27/26 25/26/25
f 26/27/26 28/29/28 27/28/27
f 28/29/28 30/31/30 29/30/29
f 30/31/30 32/33/32 31/32/31
f 32/33/32 34/35/34 33/34/33
f 34/35/34 36/37/36 35/36/35
f 36/37/36 38/39/38 37/38/37
f 38/39/38 40/41/40 39/40/39
f 40/41/40 42/43/42 41/42/41
f 42/43/42 44/46/44 43/44/43
f 44/46/44 46/48/46 45/47/45
f 46/48/46 48/50/48 47/49/47
f 48/50/48 50/52/50 49/51/49
f 50/52/50 52/54/52 51/53/51
f 52/54/52 54/56/54 53/55/53
f 54/56/54 56/58/56 55/57/55
f 56/58/56 58/60/58 57/59/57
f 58/60/58 60/62/60 59/61/59
f 60/62/60 62/64/62 61/63/61
f 6/6/6 4/4/4 1/1/1
f 1/1/1 64/66/64 6/6/6
f 64/66/64 62/64/62 6/6/6
f 62/64/62 60/62/60 58/60/58
f 58/60/58 56/58/56 54/56/54
f 54/56/54 52/54/52 50/52/50
f 50/52/50 48/50/48 54/56/54
f 48/50/48 46/48/46 54/56/54
f 46/48/46 44/46/44 38/39/38
f 44/46/44 42/43/42 38/39/38
f 42/43/42 40/41/40 38/39/38
f 38/39/38 36/37/36 34/35/34
f 34/35/34 32/33/32 30/31/30
f 30/31/30 28/29/28 26/27/26
f 26/27/26 24/25/24 22/23/22
f 22/23/22 20/21/20 18/19/18
f 18/19/18 16/17/16 22/23/22
f 16/17/16 14/15/14 22/23/22
f 14/15/14 12/13/12 10/11/10
f 10/11/10 8/68/8 6/6/6
f 62/64/62 58/60/58 6/6/6
f 58/60/58 54/56/54 6/6/6
f 38/39/38 34/35/34 22/23/22
f 34/35/34 30/31/30 22/23/22
f 30/31/30 26/27/26 22/23/22
f 14/15/14 10/11/10 22/23/22
f 10/11/10 6/6/6 22/23/22
f 54/56/54 46/48/46 38/39/38
f 6/6/6 54/56/54 22/23/22
f 62/64/62 64/66/64 63/65/63
f 64/66/64 1/1/1 3/3/3
f 63/69/63 3/70/3 2/71/2
f 2/71/2 5/72/5 7/10/7
f 7/10/7 9/9/9 11/12/11
f 11/12/11 13/14/13 7/10/7
f 13/14/13 15/16/15 7/10/7
f 15/16/15 17/18/17 19/20/19
f 19/20/19 21/22/21 15/16/15
f 21/22/21 23/24/23 15/16/15
f 23/24/23 25/26/25 31/32/31
f 25/26/25 27/28/27 31/32/31
f 27/28/27 29/30/29 31/32/31
f 31/32/31 33/34/33 35/36/35
f 35/36/35 37/38/37 39/40/39
f 39/40/39 41/42/41 43/73/43
f 43/73/43 45/74/45 47/67/47
f 47/67/47 49/75/49 51/76/51
f 51/76/51 53/77/53 55/78/55
f 55/78/55 57/79/57 63/69/63
f 57/79/57 59/80/59 63/69/63
f 59/80/59 61/81/61 63/69/63
f 63/69/63 2/71/2 7/10/7
f 31/32/31 35/36/35 47/67/47
f 35/36/35 39/40/39 47/67/47
f 39/40/39 43/73/43 47/67/47
f 47/67/47 51/76/51 63/69/63
f 51/76/51 55/78/55 63/69/63
f 63/69/63 7/10/7 15/16/15
f 15/16/15 23/24/23 31/32/31
f 63/69/63 15/16/15 47/67/47
o Icosphere
v 2.820737 1.000000 0.558065
v 3.671382 1.298692 1.176088
v 2.495826 1.298691 1.558056
v 4.267952 2.105561 1.609516
v 4.522033 1.948528 0.558065
v 1.769278 1.298697 0.558065
v 2.495826 1.298691 -0.441925
v 3.671382 1.298692 -0.059958
v 4.722853 3.000000 1.176090
v 2.267961 2.105560 2.259364
v 3.346475 1.948525 2.176088
v 2.820737 3.000000 2.558065
v 1.031885 2.105569 0.558065
v 1.444358 1.948528 1.558059
v 0.918621 3.000000 1.176090
v 2.267961 2.105560 -1.143233
v 1.444358 1.948528 -0.441929
v 1.645166 3.000000 -1.059968
v 4.267952 2.105561 -0.493386
v 3.346475 1.948525 -1.059958
v 3.996308 3.000000 -1.059968
v 3.996308 3.000000 2.176099
v 1.645166 3.000000 2.176099
v 0.918621 3.000000 -0.059960
v 2.820737 3.000000 -1.441934
v 4.722853 3.000000 -0.059960
v 3.373513 3.894439 2.259365
v 4.197116 4.051473 1.558060
v 3.145648 4.701309 1.558057
v 1.373523 3.894439 1.609517
v 2.295000 4.051476 2.176089
v 1.970092 4.701308 1.176089
v 1.373523 3.894439 -0.493385
v 1.119441 4.051472 0.558066
v 1.970092 4.701308 -0.059957
v 3.373513 3.894440 -1.143232
v 2.295000 4.051476 -1.059957
v 3.145648 4.701309 -0.441924
v 4.609590 3.894431 0.558066
v 4.197116 4.051473 -0.441928
v 3.872197 4.701303 0.558066
v 2.820737 5.000000 0.558066
vt 0.997065 0.187220
vt 0.869138 0.259582
vt 0.798856 0.067713
vt 0.799475 0.391503
vt 0.883645 0.457952
vt 1.176998 0.146011
vt 1.087467 0.312828
vt 0.975214 0.360543
vt 0.799557 0.567713
vt 0.601846 0.187770
vt 0.729667 0.259829
vt 0.623774 0.361065
vt 0.299665 0.256080
vt 0.422473 0.146416
vt 0.395623 0.343390
vt 0.136022 0.464346
vt 0.203555 0.343057
vt 0.215372 0.541752
vt 0.963043 0.535152
vt 1.049524 0.499707
vt 1.011627 0.686605
vt 0.715372 0.458248
vt 0.511627 0.313395
vt 0.299557 0.432288
vt 0.123774 0.638935
vt 0.895623 0.656610
vt 0.636022 0.535654
vt 0.703555 0.656943
vt 0.587467 0.687172
vt 0.463043 0.464849
vt 0.549524 0.500294
vt 0.475214 0.639457
vt 0.299475 0.608497
vt 0.383645 0.542048
vt 0.369138 0.740418
vt 0.101846 0.812230
vt 0.229667 0.740171
vt 0.298856 0.932287
vt 0.799665 0.743920
vt 0.922473 0.853584
vt 0.676998 0.853989
vt 0.497065 0.812780
vt 1.298856 0.932287
vt 1.101846 0.812230
vt 0.011627 0.686605
vt 0.049524 0.499707
vt 0.087467 0.312828
vt 0.176998 0.146011
vn -0.0000 -1.0000 -0.0000
vn 0.4253 -0.8507 0.3090
vn -0.1625 -0.8507 0.5000
vn 0.7236 -0.4472 0.5257
vn 0.8506 -0.5257 -0.0000
vn -0.5257 -0.8507 -0.0000
vn -0.1625 -0.8507 -0.5000
vn 0.4253 -0.8507 -0.3090
vn 0.9511 -0.0000 0.3090
vn -0.2764 -0.4472 0.8506
vn 0.2629 -0.5257 0.8090
vn -0.0000 -0.0000 1.0000
vn -0.8944 -0.4472 -0.0000
vn -0.6882 -0.5257 0.5000
vn -0.9511 0.0000 0.3090
vn -0.2764 -0.4472 -0.8506
vn -0.6882 -0.5257 -0.5000
vn -0.5878 0.0000 -0.8090
vn 0.7236 -0.4472 -0.5257
vn 0.2629 -0.5257 -0.8090
vn 0.5878 0.0000 -0.8090
vn 0.5878 -0.0000 0.8090
vn -0.5878 -0.0000 0.8090
vn -0.9511 0.0000 -0.3090
vn -0.0000 0.0000 -1.0000
vn 0.9511 -0.0000 -0.3090
vn 0.2764 0.4472 0.8506
vn 0.6882 0.5257 0.5000
vn 0.1625 0.8507 0.5000
vn -0.7236 0.4472 0.5257
vn -0.2629 0.5257 0.8090
vn -0.4253 0.8507 0.3090
vn -0.7236 0.4472 -0.5257
vn -0.8506 0.5257 0.0000
vn -0.4253 0.8507 -0.3090
vn 0.2764 0.4472 -0.8506
vn -0.2629 0.5257 -0.8090
vn 0.1625 0.8507 -0.5000
vn 0.8944 0.4472 0.0000
vn 0.6882 0.5257 -0.5000
vn 0.5257 0.8507 0.0000
vn 0.0000 1.0000 0.0000
s 1
f 65/82/65 66/83/66 67/84/67
f 68/85/68 66/83/66 69/86/69
f 65/82/65 67/84/67 70/87/70
f 65/82/65 70/87/70 71/88/71
f 65/82/65 71/88/71 72/89/72
f 68/85/68 69/86/69 73/90/73
f 74/91/74 75/92/75 76/93/76
f 77/94/77 78/95/78 79/96/79
f 80/97/80 81/98/81 82/99/82
f 83/100/83 84/101/84 85/102/85
f 68/85/68 73/90/73 86/103/86
f 74/91/74 76/93/76 87/104/87
f 77/94/77 79/96/79 88/105/88
f 80/97/80 82/99/82 89/106/89
f 83/100/83 85/102/85 90/107/90
f 91/108/91 92/109/92 93/110/93
f 94/111/94 95/112/95 96/113/96
f 97/114/97 98/115/98 99/116/99
f 100/117/100 101/118/101 102/119/102
f 103/120/103 104/121/104 105/122/105
f 105/122/105 102/119/102 106/123/106
f 105/122/105 104/121/104 102/124/102
f 104/121/104 100/125/100 102/124/102
f 102/119/102 99/116/99 106/123/106
f 102/119/102 101/118/101 99/116/99
f 101/118/101 97/114/97 99/116/99
f 99/116/99 96/113/96 106/123/106
f 99/116/99 98/115/98 96/113/96
f 98/115/98 94/111/94 96/113/96
f 96/113/96 93/110/93 106/123/106
f 96/113/96 95/112/95 93/110/93
f 95/112/95 91/108/91 93/110/93
f 93/110/93 105/122/105 106/123/106
f 93/110/93 92/109/92 105/122/105
f 92/109/92 103/120/103 105/122/105
f 90/107/90 104/121/104 103/120/103
f 90/107/90 85/102/85 104/121/104
f 85/102/85 100/125/100 104/121/104
f 89/106/89 101/118/101 100/117/100
f 89/106/89 82/99/82 101/118/101
f 82/99/82 97/114/97 101/118/101
f 88/105/88 98/115/98 97/114/97
f 88/105/88 79/96/79 98/115/98
f 79/96/79 94/111/94 98/115/98
f 87/104/87 95/112/95 94/111/94
f 87/104/87 76/93/76 95/112/95
f 76/93/76 91/108/91 95/112/95
f 86/103/86 92/109/92 91/108/91
f 86/103/86 73/90/73 92/109/92
f 73/90/73 103/120/103 92/109/92
f 85/126/85 89/106/89 100/117/100
f 85/126/85 84/127/84 89/106/89
f 84/127/84 80/97/80 89/106/89
f 82/99/82 88/105/88 97/114/97
f 82/99/82 81/98/81 88/105/88
f 81/98/81 77/94/77 88/105/88
f 79/96/79 87/104/87 94/111/94
f 79/96/79 78/95/78 87/104/87
f 78/95/78 74/91/74 87/104/87
f 76/93/76 86/103/86 91/108/91
f 76/93/76 75/92/75 86/103/86
f 75/92/75 68/85/68 86/103/86
f 73/90/73 90/107/90 103/120/103
f 73/90/73 69/86/69 90/107/90
f 69/86/69 83/100/83 90/107/90
f 72/89/72 84/101/84 83/100/83
f 72/89/72 71/88/71 84/101/84
f 71/128/71 80/97/80 84/127/84
f 71/128/71 81/98/81 80/97/80
f 71/128/71 70/129/70 81/98/81
f 70/129/70 77/94/77 81/98/81
f 70/129/70 78/95/78 77/94/77
f 70/87/70 67/84/67 78/95/78
f 67/84/67 74/91/74 78/95/78
f 69/86/69 72/89/72 83/100/83
f 69/86/69 66/83/66 72/89/72
f 66/83/66 65/82/65 72/89/72
f 67/84/67 75/92/75 74/91/74
f 67/84/67 66/83/66 75/92/75
f 66/83/66 68/85/68 75/92/75
o Wall_1_Plane.002
v 10.000000 0.000002 -10.000000
v -10.000000 10.000002 -9.999998
v -10.000000 0.000002 -10.000000
v 10.000000 10.000002 -9.999998
vt 1.000000 0.000000
vt 0.000000 1.000000
vt 0.000000 0.000000
vt 1.000000 1.000000
vn 0.0000 -0.0000 1.0000
s 1
f 107/130/107 108/131/107 109/132/107
f 107/130/107 110/133/107 108/131/107
o Floor_Plane
v 10.000000 -0.000002 10.000000
v -10.000000 0.000002 -10.000000
v -10.000000 -0.000002 10.000000
v 10.000000 0.000002 -10.000000
vt 1.000000 0.000000
vt 0.000000 1.000000
vt 0.000000 0.000000
vt 1.000000 1.000000
vn 0.0000 1.0000 0.0000
s 1
f 111/134/108 112/135/108 113/136/108
f 111/134/108 114/137/108 112/135/108
o Wall_0_Plane.001
v -10.000001 0.000002 -10.000000
v -9.999999 9.999998 10.000002
v -10.000000 -0.000002 10.000000
v -10.000000 10.000002 -9.999998
vt 1.000000 0.000000
vt 0.000000 1.000000
vt 0.000000 0.000000
vt 1.000000 1.000000
vn 1.0000 -0.0000 -0.0000
s 1
f 115/138/109 116/139/109 117/140/109
f 115/138/109 118/141/109 116/139/109
o Cube_Cube.002
v -4.819811 1.999999 5.863316
v -4.819811 -0.000001 3.863315
v -4.819811 -0.000001 5.863315
v -4.819811 1.999999 3.863315
v -2.819811 -0.000001 3.863315
v -2.819811 1.999999 3.863315
v -2.819811 -0.000001 5.863315
v -2.819811 1.999999 5.863316
vt 0.568343 1.500000
vt 1.568343 0.500000
vt 0.568343 0.500000
vt 0.090095 1.500000
vt 1.090095 0.500000
vt 0.090095 0.500000
vt 0.568343 1.500000
vt -0.431657 0.500000
vt 0.568343 0.500000
vt 0.090095 1.500000
vt -0.909905 0.500000
vt 0.090095 0.500000
vt 1.090095 0.568343
vt 0.090095 -0.431657
vt 0.090095 0.568343
vt -0.909905 0.568343
vt 0.090095 -0.431657
vt 0.090095 0.568343
vt 1.568343 1.500000
vt 1.090095 1.500000
vt -0.431657 1.500000
vt -0.909905 1.500000
vt 1.090095 -0.431657
vt -0.909905 -0.431657
vn -0.5774 0.5774 0.5774
vn -0.5774 -0.5774 -0.5774
vn -0.5774 -0.5774 0.5774
vn -0.5774 0.5774 -0.5774
vn 0.5774 -0.5774 -0.5774
vn 0.5774 0.5774 -0.5774
vn 0.5774 -0.5774 0.5774
vn 0.5774 0.5774 0.5774
s 1
f 119/142/110 120/143/111 121/144/112
f 122/145/113 123/146/114 120/147/111
f 124/148/115 125/149/116 123/150/114
f 126/151/117 121/152/112 125/153/116
f 123/154/114 121/155/112 120/156/111
f 122/157/113 126/158/117 124/159/115
f 119/142/110 122/160/113 120/143/111
f 122/145/113 124/161/115 123/146/114
f 124/148/115 126/162/117 125/149/116
f 126/151/117 119/163/110 121/152/112
f 123/154/114 125/164/116 121/155/112
f 122/157/113 119/165/110 126/158/117
